<svg xmlns="http://www.w3.org/2000/svg" viewBox="0 0 512 512">
  <!-- EvoFootball Arena — procedural app icon (matches docs/ART_DIRECTION.md) -->
  <rect width="512" height="512" rx="96" fill="#0b1220"/>
  <!-- diorama pitch -->
  <rect x="56" y="136" width="400" height="240" rx="18" fill="#2d7a3e"/>
  <rect x="56" y="136" width="100" height="240" fill="#37904b" opacity="0.55"/>
  <rect x="256" y="136" width="100" height="240" fill="#37904b" opacity="0.55"/>
  <g stroke="#f5f8fc" stroke-width="8" fill="none" opacity="0.95">
    <rect x="72" y="152" width="368" height="208" rx="8"/>
    <line x1="256" y1="152" x2="256" y2="360"/>
    <circle cx="256" cy="256" r="46"/>
  </g>
  <!-- ball -->
  <circle cx="256" cy="256" r="30" fill="#f5f7fa"/>
  <circle cx="247" cy="248" r="7" fill="#20242c"/>
  <circle cx="268" cy="252" r="7" fill="#20242c"/>
  <circle cx="257" cy="269" r="7" fill="#20242c"/>
  <!-- evolution accent -->
  <path d="M 396 88 l 14 28 30 4 -22 21 5 30 -27 -14 -27 14 5 -30 -22 -21 30 -4 z" fill="#4ade80"/>
</svg>
